<?xml version="1.0" encoding="utf-8"?>
<!-- Generator: Adobe Illustrator 26.5.0, SVG Export Plug-In . SVG Version: 6.00 Build 0)  -->
<svg version="1.1" id="Ebene_1" xmlns="http://www.w3.org/2000/svg" xmlns:xlink="http://www.w3.org/1999/xlink" x="0px" y="0px"
	 viewBox="0 0 64.1 60" style="enable-background:new 0 0 64.1 60;" xml:space="preserve">
<g id="Gruppe_2" transform="matrix(1, 0, 0, 1, -35.368988, -81.208221)">
	<g id="desktop_logo" transform="translate(151 216.886)">
		<g id="logo">
			<path id="Pfad_7" d="M-145.2-304.5c-1.6,5.7-2.8,11.5-3.7,17.4l-2.6,15.7l-16.3,8.2C-234-230.4-275.1-162.1-273.3-88.2l0.7,21.7
				L-284.8-55c-4.7,4-8.9,8.6-12.3,13.7c0,1.1,13.7,25.8,30.5,54.6c23.6,40.6,31.1,52.2,33.7,51.1c1.9-0.9,9.2-3.4,16.5-5.8
				l12.9-4.7l9.7,6.7c18.4,12,38.3,21.3,59.3,27.7c16.3,4.9,23,5.8,49,6c42.7,0.2,72.6-7.9,105.2-29l15-9.7l16.1,4.9
				c8.8,2.8,16.8,4.9,17.4,4.9c2.1,0,62.5-105,61.6-107.2c-3.6-4.2-7.8-8.1-12.2-11.4l-11.4-9.7l-0.7-30.9
				c-0.4-34.2-4.3-52.2-15.7-77.8c-18.1-39.4-49-71.5-87.6-91.3l-15-7.5l-4.3-17.4l-4.1-17.4l-61.6-0.7
				C-116.7-305.8-144.8-305.4-145.2-304.5z M-27.5-279.2l3.7,16.3l17.6,8.6c58.1,27.9,96.8,85,101.2,149.3
				c0.7,10.3,0.4,20.7-0.9,30.9c-2.4,15.5-3.2,14,15.7,29.4l8.2,6.7l-26,45.1L65.7,52.2l-16.1-4.9l-16.1-4.9L16,53.9
				C-45.3,95-125.5,94.3-186.1,52c-5.2-4-10.8-7.4-16.8-10.1c-5.4,1.2-10.7,2.8-15.9,4.7c-4.6,2-9.6,3.3-14.6,3.9
				c-0.4-0.7-12.2-20.8-26.2-45.1l-25.3-43.8l11.6-10.7l11.6-10.5l0.2-30.3c0.2-35.7,4.5-54.6,18-82.1
				c16.9-35.4,45.4-63.9,80.8-80.8l21.9-10.7l2.6-15.9l2.4-15.9H-31L-27.5-279.2z"/>
			<path id="Pfad_8" d="M-90.9-229.2v10.3l-15.3,2.4c-11.7,2.1-23.1,6-33.7,11.4c-44.4,22.1-71.4,68.6-68.5,118.1
				c0.7,10.6,2.6,21.2,5.8,31.3c2.4,6.9,4.9,14.2,5.6,15.9c0.7,2.4-1.7,4.9-7.5,8.2c-9.7,5.4-10.5,7.7-5.6,14.8l3.2,4.7l9.2-5.2
				l9.2-5.2l17.2,16.5c22.9,24,54.7,37.4,87.9,37c33.3,0.5,65.2-13,88.1-37.2l17.2-17l8.6,4.5c11,5.8,11.2,5.8,15-1.9
				c3.2-6.2,3.2-6.4-3.7-9.9c-12.5-6.2-12.5-6.2-6.7-22.6c15.6-45.5,3.7-95.9-30.5-129.7c-19.5-19.1-53.3-35.4-73.5-35.4
				c-7.1,0-7.1,0-7.1-10.7v-10.8h-15V-229.2z M-90.9-174v22.6h-8.6c-4.7,0-8.6,0.7-8.6,1.5c0.2,1.1,5.8,12.2,12.7,25.1l12.7,23.4
				l11.6-22.3c6.2-12.2,11.6-23.6,12-25.1c0.4-1.7-2.1-2.6-7.9-2.6h-8.8v-45.1l7.1,1.3C-19-187.6,18-145.1,18.6-94.7
				c0,18.9-6.2,44.2-10.7,44.2c-11.8-5.6-23.2-11.9-34.4-18.7c0.2-2.7,1.2-5.3,2.8-7.5c2.1-3.7,3.2-7.1,2.6-7.7
				c-9-1.5-18.1-2.2-27.3-2.1c-21.7-0.9-25.6-0.4-24.3,1.9c5.4,9,27.5,42.7,28.1,42.7c1.6-2,3-4.1,4.1-6.4c1.9-3.7,4.3-6.4,5.6-6.4
				c4.3,0,34.2,18,34.2,20.6c0,3.2-20.4,22.3-30.1,28.1c-34.4,19.2-76.6,18-109.8-3.2c-12.7-8.8-26.4-23.2-24.7-26
				c5.6-4.2,11.6-7.9,17.8-11.2c12.9-7.1,16.5-8.4,18-6c6.9,12.2,6.9,12.2,20.6-9c7.1-11.2,13.5-21.5,14.6-23.2
				c1.5-2.6-2.6-2.8-24.5-1.9c-9.1,0.1-18.3,0.9-27.3,2.4c-0.7,0.7,0.2,3.4,2.1,6.2c1.7,2.1,2.9,4.7,3.4,7.3
				c-5,5.2-10.9,9.4-17.4,12.5l-17.2,9.7l-4.5-10.1c-7.1-20.6-7.8-42.9-2.1-64c7.8-25.9,25.6-47.7,49.4-60.6
				c12.5-6.3,25.9-10.7,39.7-13.1C-90.9-188.9-90.4-181.4-90.9-174L-90.9-174z"/>
		</g>
	</g>
</g>
</svg>
