<?xml version="1.0" encoding="utf-8"?>
<!-- Generator: Adobe Illustrator 26.5.0, SVG Export Plug-In . SVG Version: 6.00 Build 0)  -->
<svg version="1.1" id="Ebene_1" xmlns="http://www.w3.org/2000/svg" xmlns:xlink="http://www.w3.org/1999/xlink" x="0px" y="0px"
	 viewBox="0 0 410 410" style="enable-background:new 0 0 410 410;" xml:space="preserve">
<g transform="translate(0.000000,512.000000) scale(0.100000,-0.100000)">
	<path d="M1790.6,5055.1c-594.2-80.2-1097-399.1-1429-904.8c-69.8-106.6-162.2-301.9-206.6-434
		c-168.8-507.6-133.9-1054.9,97.2-1528.5c170.7-348.2,445.2-646.3,775.3-840.7c582-342.5,1301.6-370.8,1904.3-74.5
		c690.4,338.7,1117.7,1026.6,1117.7,1797.4c0,539.7-205.6,1036.9-583.8,1416.2c-317.9,318-710.2,510.5-1163.9,569.9
		C2166.9,5073,1921.7,5073,1790.6,5055.1z M3035.6,3856.8c36.8-19.8,77.3-57.6,69.8-64.2c-33-30.2-904.5-640.7-941.3-658.6
		c-64.1-33-152.8-35.9-216-7.5c-28.3,12.3-916.8,633.1-953.6,666.1c-6.6,6.6,31.1,43.4,60.4,58.5c15.1,7.5,41.5,17.9,56.6,21.7
		c16,3.8,446.1,5.7,957.4,5.7l929.1-1.9L3035.6,3856.8z M1418,3329.4c489.5-347.2,501.8-353.8,632-353.8
		c131.1,0,143.4,7.5,626.3,350c242.4,170.8,446.1,313.3,453.7,316.1c12.3,4.7,14.1-68.9,14.1-596.3c0-374.6-3.8-616.1-9.4-636.9
		c-15.1-52.8-48.1-95.3-94.3-121.7l-42.4-23.6h-948h-948l-42.4,23.6c-46.2,26.4-79.2,68.9-94.3,121.7c-11.3,42.5-13.2,1237-0.9,1237
		C968.1,3645.5,1172.8,3503,1418,3329.4z"/>
</g>
</svg>
