<?xml version="1.0" encoding="utf-8"?>
<!-- Generator: Adobe Illustrator 26.5.0, SVG Export Plug-In . SVG Version: 6.00 Build 0)  -->
<svg version="1.1" id="Ebene_1" xmlns="http://www.w3.org/2000/svg" xmlns:xlink="http://www.w3.org/1999/xlink" x="0px" y="0px"
	 viewBox="0 0 410 410" style="enable-background:new 0 0 410 410;" xml:space="preserve">
<g transform="translate(0.000000,320.000000) scale(0.100000,-0.100000)">
	<path d="M1767.3,3140.8C867.5,3001.2,179.1,2300.2,58.8,1402.9c-22.1-167.3-8.3-515.7,27.6-669.2
		C270.3-69.6,853.6-644.7,1663.7-821.7c167.3-37.3,606.8-37.3,774.1,0C3257.5-643.3,3843.6-57.1,4021.9,762.7
		c20.7,92.6,26.3,175.6,26.3,387.1s-5.5,294.5-26.3,387.1c-176.9,810.2-750.6,1392.3-1555.1,1577.5
		C2329.9,3146.3,1908.3,3161.5,1767.3,3140.8z M2349.3,2365.2c55.3-16.6,141-99.5,165.9-159c22.1-52.5,24.9-153.5,6.9-203.2
		c-6.9-19.4-34.6-58.1-59.4-85.7c-118.9-136.9-335.9-138.3-463.1-5.5c-87.1,92.6-100.9,226.7-33.2,331.8
		C2046.6,2370.7,2186.2,2413.6,2349.3,2365.2z M2100.5,1530.1c37.3-11.1,94-41.5,125.8-69.1c128.6-110.6,134.1-273.8,18-677.5
		C2122.6,354.9,2108.8,254,2165.4,189c41.5-48.4,142.4-59.5,247.4-29c42.9,12.4,80.2,22.1,82.9,22.1c4.1,0,0-30.4-8.3-69.1
		l-13.8-69.1L2363,1c-225.3-85.7-373.2-102.3-518.4-59.5c-138.2,40.1-236.4,170.1-236.4,311.1c0,81.6,33.2,233.7,110.6,503.3
		c38.7,136.9,77.4,293.1,85.7,347c13.8,87.1,12.4,103.7-11.1,152.1c-22.1,45.6-35.9,55.3-87.1,66.4c-56.7,12.4-125.8,4.1-230.8-26.3
		c-27.6-8.3-27.6-6.9-13.8,60.8l13.8,70.5l96.8,37.3C1803.3,1552.2,1960.9,1571.6,2100.5,1530.1z"/>
</g>
</svg>
