<?xml version="1.0" encoding="utf-8"?>
<svg viewBox="55.655 135.677 64.051 60.001" width="64.051" height="60.001" xmlns="http://www.w3.org/2000/svg">
  <g id="Gruppe_2" data-name="Gruppe 2" transform="matrix(1, 0, 0, 1, -35.368988, -81.208221)">
    <g id="desktop_logo" transform="translate(151 216.886)">
      <g id="logo">
        <path id="Pfad_7" data-name="Pfad 7" d="M -37.197 0.17 C -37.437 1.027 -37.62 1.899 -37.745 2.78 L -38.132 5.132 L -40.576 6.356 C -50.503 11.292 -56.673 21.531 -56.4 32.614 L -56.3 35.868 L -58.136 37.608 C -58.844 38.205 -59.464 38.899 -59.976 39.67 C -59.976 39.831 -57.914 43.536 -55.401 47.854 C -51.857 53.943 -50.729 55.683 -50.343 55.522 C -50.053 55.393 -48.958 55.007 -47.862 54.652 L -45.929 53.943 L -44.479 54.943 C -41.726 56.741 -38.733 58.141 -35.587 59.099 C -33.138 59.84 -32.14 59.969 -28.241 59.999 C -21.829 60.031 -17.351 58.807 -12.454 55.649 L -10.199 54.199 L -7.783 54.94 C -6.462 55.359 -5.27 55.681 -5.173 55.681 C -4.851 55.681 4.203 39.926 4.074 39.604 C 3.527 38.969 2.911 38.396 2.238 37.896 L 0.53 36.446 L 0.43 31.807 C 0.366 26.684 -0.214 23.978 -1.922 20.144 C -4.644 14.234 -9.274 9.412 -15.067 6.451 L -17.318 5.326 L -17.962 2.716 L -18.574 0.106 L -27.821 0.006 C -32.912 -0.024 -37.133 0.041 -37.197 0.17 Z M -19.541 3.97 L -18.993 6.418 L -16.351 7.707 C -7.633 11.898 -1.838 20.45 -1.176 30.101 C -1.071 31.648 -1.114 33.201 -1.305 34.74 C -1.659 37.06 -1.788 36.834 1.047 39.154 L 2.271 40.154 L -1.629 46.92 L -5.56 53.686 L -7.976 52.944 L -10.392 52.203 L -13.002 53.943 C -22.202 60.105 -34.24 59.99 -43.32 53.653 C -44.097 53.053 -44.94 52.545 -45.833 52.139 C -46.643 52.32 -47.44 52.557 -48.217 52.848 C -48.914 53.15 -49.653 53.346 -50.408 53.428 C -50.472 53.328 -52.244 50.303 -54.339 46.662 L -58.139 40.089 L -56.399 38.478 L -54.659 36.899 L -54.627 32.356 C -54.595 27.008 -53.95 24.172 -51.921 20.048 C -49.388 14.743 -45.112 10.468 -39.807 7.934 L -36.521 6.323 L -36.134 3.939 L -35.78 1.555 L -20.057 1.555 L -19.541 3.97 Z"/>
        <path id="Pfad_8" data-name="Pfad 8" d="M -29.046 11.478 L -29.046 13.025 L -31.334 13.379 C -33.094 13.699 -34.798 14.274 -36.392 15.087 C -43.059 18.401 -47.104 25.375 -46.67 32.807 C -46.565 34.402 -46.273 35.98 -45.8 37.507 C -45.446 38.538 -45.059 39.633 -44.962 39.891 C -44.862 40.245 -45.22 40.632 -46.09 41.115 C -47.54 41.92 -47.669 42.275 -46.928 43.338 L -46.445 44.047 L -45.06 43.274 L -43.675 42.501 L -41.098 44.982 C -37.668 48.585 -32.893 50.596 -27.919 50.532 C -22.931 50.6 -18.141 48.579 -14.709 44.958 L -12.132 42.413 L -10.843 43.09 C -9.2 43.96 -9.168 43.96 -8.588 42.8 C -8.105 41.866 -8.105 41.833 -9.136 41.318 C -11.005 40.384 -11.005 40.384 -10.136 37.935 C -7.803 31.108 -9.581 23.548 -14.711 18.475 C -17.643 15.608 -22.701 13.159 -25.73 13.159 C -26.793 13.159 -26.793 13.159 -26.793 11.548 L -26.793 9.932 L -29.046 9.932 L -29.046 11.478 Z M -29.046 19.758 L -29.046 23.141 L -30.335 23.141 C -31.044 23.141 -31.624 23.241 -31.624 23.366 C -31.592 23.527 -30.754 25.203 -29.724 27.136 L -27.824 30.648 L -26.084 27.297 C -25.15 25.461 -24.344 23.753 -24.284 23.527 C -24.22 23.269 -24.606 23.141 -25.476 23.141 L -26.795 23.141 L -26.795 16.375 L -25.732 16.568 C -18.258 17.706 -12.707 24.088 -12.615 31.647 C -12.615 34.482 -13.549 38.284 -14.226 38.284 C -15.992 37.441 -17.713 36.506 -19.381 35.484 C -19.354 35.075 -19.208 34.683 -18.962 34.356 C -18.64 33.808 -18.479 33.293 -18.575 33.196 C -19.928 32.976 -21.297 32.869 -22.667 32.874 C -25.921 32.745 -26.501 32.81 -26.308 33.164 C -25.503 34.517 -22.184 39.575 -22.087 39.575 C -21.842 39.28 -21.637 38.955 -21.475 38.608 C -21.185 38.06 -20.831 37.641 -20.637 37.641 C -19.993 37.641 -15.514 40.347 -15.514 40.734 C -15.514 41.217 -18.575 44.085 -20.025 44.955 C -25.184 47.835 -31.508 47.65 -36.489 44.472 C -38.389 43.151 -40.452 40.993 -40.194 40.572 C -39.351 39.94 -38.457 39.38 -37.52 38.897 C -35.587 37.834 -35.039 37.64 -34.814 37.997 C -33.783 39.833 -33.783 39.833 -31.721 36.644 C -30.658 34.969 -29.691 33.422 -29.53 33.165 C -29.304 32.778 -29.917 32.746 -33.203 32.875 C -34.574 32.89 -35.942 33.008 -37.295 33.229 C -37.395 33.329 -37.263 33.744 -36.973 34.163 C -36.719 34.485 -36.542 34.861 -36.457 35.263 C -37.204 36.042 -38.089 36.676 -39.067 37.132 L -41.644 38.582 L -42.321 37.068 C -43.385 33.972 -43.497 30.628 -42.643 27.468 C -41.474 23.578 -38.809 20.31 -35.233 18.383 C -33.353 17.44 -31.345 16.778 -29.273 16.418 C -29.043 17.516 -28.967 18.64 -29.046 19.759 L -29.046 19.758 Z"/>
      </g>
    </g>
  </g>
</svg>