<svg xmlns="http://www.w3.org/2000/svg" width="268.736" height="60" viewBox="0 0 268.736 60">
  <g id="Gruppe_2" data-name="Gruppe 2" transform="translate(-151 -216.886)">
    <g id="desktop_logo" transform="translate(151 216.886)">
      <g id="logo">
        <path id="Pfad_7" data-name="Pfad 7" d="M26.779-522.656a20.206,20.206,0,0,0-.548,2.61l-.387,2.352L23.4-516.47A28.54,28.54,0,0,0,7.576-490.212l.1,3.254-1.836,1.74A9.779,9.779,0,0,0,4-483.156c0,.161,2.062,3.866,4.575,8.184,3.544,6.089,4.672,7.829,5.058,7.668.29-.129,1.385-.515,2.481-.87l1.933-.709,1.45,1a34.8,34.8,0,0,0,8.892,4.156c2.449.741,3.447.87,7.346.9,6.412.032,10.89-1.192,15.787-4.35l2.255-1.45,2.416.741c1.321.419,2.513.741,2.61.741.322,0,9.376-15.755,9.247-16.077a11.351,11.351,0,0,0-1.836-1.708l-1.708-1.45-.1-4.639c-.064-5.123-.644-7.829-2.352-11.663a29,29,0,0,0-13.145-13.693L46.658-517.5l-.644-2.61-.612-2.61-9.247-.1C31.064-522.85,26.843-522.785,26.779-522.656Zm17.656,3.8.548,2.448,2.642,1.289A26.888,26.888,0,0,1,62.8-492.725a24.274,24.274,0,0,1-.129,4.639c-.354,2.32-.483,2.094,2.352,4.414l1.224,1-3.9,6.766-3.931,6.766L56-469.882l-2.416-.741-2.61,1.74a26.857,26.857,0,0,1-30.318-.29,12.711,12.711,0,0,0-2.513-1.514,17.951,17.951,0,0,0-2.384.709,7.557,7.557,0,0,1-2.191.58c-.064-.1-1.836-3.125-3.931-6.766l-3.8-6.573,1.74-1.611,1.74-1.579.032-4.543c.032-5.348.677-8.184,2.706-12.308a25.7,25.7,0,0,1,12.114-12.114l3.286-1.611.387-2.384.354-2.384H43.919Z" transform="translate(-4 522.826)"/>
        <path id="Pfad_8" data-name="Pfad 8" d="M61.449-490.454v1.547l-2.288.354a18.366,18.366,0,0,0-5.058,1.708,18.581,18.581,0,0,0-10.278,17.72,20.431,20.431,0,0,0,.87,4.7c.354,1.031.741,2.126.838,2.384.1.354-.258.741-1.128,1.224-1.45.805-1.579,1.16-.838,2.223l.483.709,1.385-.773,1.385-.773,2.577,2.481A17.881,17.881,0,0,0,62.576-451.4a17.861,17.861,0,0,0,13.21-5.574l2.577-2.545,1.289.677c1.643.87,1.675.87,2.255-.29.483-.934.483-.967-.548-1.482-1.869-.934-1.869-.934-1-3.383a18.812,18.812,0,0,0-4.575-19.46c-2.932-2.867-7.99-5.316-11.019-5.316-1.063,0-1.063,0-1.063-1.611V-492H61.449Zm0,8.28v3.383H60.16c-.709,0-1.289.1-1.289.225.032.161.87,1.837,1.9,3.77l1.9,3.512,1.74-3.351c.934-1.836,1.74-3.544,1.8-3.77.064-.258-.322-.386-1.192-.386H63.7v-6.766l1.063.193A15.443,15.443,0,0,1,77.88-470.285c0,2.835-.934,6.637-1.611,6.637a56.264,56.264,0,0,1-5.155-2.8,2.114,2.114,0,0,1,.419-1.128c.322-.548.483-1.063.387-1.16a24.916,24.916,0,0,0-4.092-.322c-3.254-.129-3.834-.064-3.641.29.805,1.353,4.124,6.411,4.221,6.411a4.452,4.452,0,0,0,.612-.967c.29-.548.644-.967.838-.967.644,0,5.123,2.706,5.123,3.093,0,.483-3.061,3.351-4.511,4.221a16.058,16.058,0,0,1-16.464-.483c-1.9-1.321-3.963-3.479-3.705-3.9a18.848,18.848,0,0,1,2.674-1.675c1.933-1.063,2.481-1.257,2.706-.9,1.031,1.836,1.031,1.836,3.093-1.353,1.063-1.675,2.03-3.222,2.191-3.479.226-.387-.387-.419-3.673-.29a27.191,27.191,0,0,0-4.092.354c-.1.1.032.515.322.934a2.656,2.656,0,0,1,.516,1.1,8.725,8.725,0,0,1-2.61,1.869l-2.577,1.45-.677-1.514a16.387,16.387,0,0,1-.322-9.6,15.336,15.336,0,0,1,7.41-9.085,21.517,21.517,0,0,1,5.96-1.965A12.131,12.131,0,0,1,61.449-482.173Z" transform="translate(-30.519 501.932)"/>
        <path id="Pfad_9" data-name="Pfad 9" d="M323.187-487.53a7.721,7.721,0,0,0-4.414,3.576c-.741,1.418-.741,1.74-.773,9.891v8.473h4.511V-481.73l.805-.773a2.492,2.492,0,0,1,2.094-.805,2.675,2.675,0,0,1,2.9,2.9c0,1.74-1,2.771-3.029,3.061l-1.482.226V-473h1.772c4.382,0,7.217-2.9,7.249-7.41a6.956,6.956,0,0,0-3.641-6.411A9.616,9.616,0,0,0,323.187-487.53Z" transform="translate(-216.833 499.04)"/>
        <path id="Pfad_10" data-name="Pfad 10" d="M723.809-487.3a2.569,2.569,0,0,0,.483,4.156c1.869,1,3.9-.967,3.189-3.093C726.869-488.036,725.323-488.488,723.809-487.3Z" transform="translate(-491.319 499.192)"/>
        <path id="Pfad_11" data-name="Pfad 11" d="M223.822-486.678a5.722,5.722,0,0,0-3.222,8.022,14.393,14.393,0,0,0,4.7,4.543c2.352,1.547,3.061,2.288,3.061,3.061,0,1.256-.58,1.45-4.575,1.45h-3.8v4.511h3.963c4.414,0,5.9-.29,7.314-1.482a4.971,4.971,0,0,0,1.933-3.77c.451-2.964-.451-4.317-5.381-7.99-2.255-1.675-3-2.417-3-2.964,0-1.321.548-1.514,4.253-1.514h3.48V-487l-3.931.032A26.972,26.972,0,0,0,223.822-486.678Z" transform="translate(-150.395 498.543)"/>
        <path id="Pfad_12" data-name="Pfad 12" d="M276.072-486.549a10.935,10.935,0,0,0-6.863,5.96,9.062,9.062,0,0,0-.709,4.382c0,3.641.677,5.509,2.8,7.764s4.092,3.093,7.926,3.286l2.964.161V-469.6h-2.255c-2.481,0-3.544-.387-4.9-1.836a6.793,6.793,0,0,1,1.74-10.6,8.833,8.833,0,0,1,3.157-.451h2.255V-487l-2.32.032A17.507,17.507,0,0,0,276.072-486.549Z" transform="translate(-183.282 498.543)"/>
        <path id="Pfad_13" data-name="Pfad 13" d="M401.672-486.71a5.816,5.816,0,0,0-4.317,4.382,74.647,74.647,0,0,0-.354,9.279v7.99l2.352-.1,2.32-.1-.032-3.963v-3.931h6.637v-4.51h-6.6l.1-1.933c.161-2.545.644-2.9,4-2.9h2.513V-487l-2.8.032A27.944,27.944,0,0,0,401.672-486.71Z" transform="translate(-270.381 498.543)"/>
        <path id="Pfad_14" data-name="Pfad 14" d="M599.794-486.724a73.031,73.031,0,0,0-.226,7.958v7.7l-1.1,1.1c-1.45,1.45-3.061,1.514-4.382.161a3.752,3.752,0,0,1,.064-5.67,2.8,2.8,0,0,1,2.577-.741l1.547.1v-1.965c0-2.223-.161-2.384-2.352-2.384a7.545,7.545,0,0,0-6.6,5.123c-2.417,7.99,6.218,14.112,11.921,8.441,2.32-2.32,2.545-3.512,2.448-12.469l-.1-7.378-1.772-.1A5.064,5.064,0,0,0,599.794-486.724Z" transform="translate(-400.457 498.46)"/>
        <path id="Pfad_15" data-name="Pfad 15" d="M696.194-478.537c-.1.258-.129,3.931-.065,8.151.1,6.7.161,7.8.677,8.57.934,1.417,2,1.933,4.188,1.965l2,.032v-3.866l-1.289-.161-1.289-.161-.1-3.448-.1-3.447,1.385-.1,1.385-.1.1-1.869.1-1.836h-2.932v-1.9c0-1.869-.032-1.9-1-2.094C697.58-479.117,696.387-479.021,696.194-478.537Z" transform="translate(-473.112 493.108)"/>
        <path id="Pfad_16" data-name="Pfad 16" d="M443.431-466.332a7.851,7.851,0,0,0-4.285,7.861c.387,4.575,3.061,7.12,7.507,7.12,3.447,0,5.542-1.289,6.895-4.317a9.8,9.8,0,0,0,.29-6.25,8.614,8.614,0,0,0-4.607-4.672A9.478,9.478,0,0,0,443.431-466.332Zm5.187,3.866c1.74,1.063,2.223,4.059.967,6.025a4.153,4.153,0,0,1-3.77,1.192,3.863,3.863,0,0,1-2.739-2.9C442.4-461.725,445.687-464.238,448.619-462.466Z" transform="translate(-298.931 484.931)"/>
        <path id="Pfad_17" data-name="Pfad 17" d="M545.271-466.192c-2.674,1.385-2.771,1.708-2.771,8.57v6.025h3.866l.161-5.251c.129-4.736.225-5.316.773-5.735a2.14,2.14,0,0,1,2.932.354c.773.773.806.9.806,5.8v4.994H554.9v-5.832c0-6.6-.225-7.507-2.191-8.731a6.79,6.79,0,0,0-3.576-.805C547.043-466.933,546.463-466.836,545.271-466.192Z" transform="translate(-369.003 484.887)"/>
        <path id="Pfad_18" data-name="Pfad 18" d="M647.381-466.716a7.37,7.37,0,0,0-4,3.641,9.056,9.056,0,0,0-.193,7.475,7.14,7.14,0,0,0,8.087,3.834c.644-.193.709-.419.709-2.191v-1.965l-1.772.1c-1.611.129-1.836.032-2.739-.838a2.85,2.85,0,0,1-.967-2.642,2.921,2.921,0,0,1,1.1-2.771,3.25,3.25,0,0,1,1.933-1.1,4.668,4.668,0,0,1,3.383,1.547,22.573,22.573,0,0,1,.354,5.348v4.7h3.9l-.1-5.574c-.1-5.51-.1-5.606-1-6.959C654.469-466.523,650.6-467.683,647.381-466.716Z" transform="translate(-436.768 485.025)"/>
        <path id="Pfad_19" data-name="Pfad 19" d="M749.333-466.557a8.327,8.327,0,0,0-4.124,3.609,7.49,7.49,0,0,0-.709,3.963c0,2.32.1,2.771.966,4.188a8.71,8.71,0,0,0,2.545,2.545,5.708,5.708,0,0,0,3.866.967c4.8-.032,7.6-3.029,7.6-8.087a7.5,7.5,0,0,0-4.575-7.024A10.172,10.172,0,0,0,749.333-466.557Zm5.252,4.607A4.822,4.822,0,0,1,755-456.7a3.823,3.823,0,0,1-5.638.516c-1.707-1.708-1.289-5.252.773-6.315A3.864,3.864,0,0,1,754.584-461.949Z" transform="translate(-505.921 484.897)"/>
        <path id="Pfad_20" data-name="Pfad 20" d="M802.383-466.587a6.356,6.356,0,0,0-1.74,1.031c-1.418,1.289-1.643,2.352-1.643,8.409v5.67l2.03-.1,2-.1v-5.091c0-4.994.032-5.123.773-5.735a2.184,2.184,0,0,1,2.964,0c.741.612.773.806.87,5.8l.1,5.187H811.6l-.1-6.089c-.1-6.959-.225-7.314-2.835-8.667A9.725,9.725,0,0,0,802.383-466.587Z" transform="translate(-542.862 484.96)"/>
        <path id="Pfad_21" data-name="Pfad 21" d="M494-459.911c.1,5.606.161,6.186.773,7.024,1.224,1.643,2.577,2.191,5.445,2.191s4.22-.548,5.445-2.191c.612-.838.677-1.418.773-7.024l.1-6.089h-4.221v5.091c0,5.832-.161,6.315-2.062,6.315-2.094,0-2.288-.451-2.384-6.25l-.1-5.155H493.9Z" transform="translate(-336.061 484.309)"/>
        <path id="Pfad_22" data-name="Pfad 22" d="M724-458.429v7.572h3.866V-466H724Z" transform="translate(-492.026 484.309)"/>
        <path id="Pfad_23" data-name="Pfad 23" d="M413.492-395.307c-.322.387-.322.58,0,.934a.675.675,0,0,0,1.224-.548C414.587-395.758,414.039-395.951,413.492-395.307Z" transform="translate(-281.395 436.652)"/>
        <path id="Pfad_24" data-name="Pfad 24" d="M456.418-395.515c-1.063.483-1.417,1.643-1.417,4.446,0,2.513.032,2.578.805,2.578s.773-.064.87-2.835c.1-2.739.1-2.8.9-2.8.644,0,.806.161.806.806,0,.58-.193.838-.709.9-.548.1-.741.322-.741.9,0,1.063,1.353,1.063,2.416-.032a2.3,2.3,0,0,0-.516-3.866A2.089,2.089,0,0,0,456.418-395.515Z" transform="translate(-309.694 436.763)"/>
        <path id="Pfad_25" data-name="Pfad 25" d="M225.28-394.388c-.741,1.385-.354,2.191,1.9,4,.934.741.612,1.192-.967,1.192-1.031,0-1.257.1-1.257.644,0,.58.226.644,1.772.644,1.514,0,1.836-.1,2.287-.805q1.112-1.692-1.16-3.286c-1.643-1.16-1.643-1.708,0-1.708,1.063,0,1.289-.1,1.289-.644,0-.58-.226-.644-1.772-.644C225.988-395,225.57-394.871,225.28-394.388Z" transform="translate(-153.754 436.184)"/>
        <path id="Pfad_26" data-name="Pfad 26" d="M336.563-394.066c-.934.838-1.063,1.128-1.063,2.61s.129,1.772,1.063,2.61a2.993,2.993,0,0,0,2.32.934c1.063,0,1.289-.1,1.289-.644,0-.483-.225-.644-.805-.644a2.982,2.982,0,0,1-2.417-2.191,2.635,2.635,0,0,1,2.288-2.32c.709,0,.934-.161.934-.644,0-.548-.225-.644-1.289-.644A2.992,2.992,0,0,0,336.563-394.066Z" transform="translate(-228.695 436.184)"/>
        <path id="Pfad_27" data-name="Pfad 27" d="M386-390.165c0,3.028.258,3.608,1.514,3.608.515,0,.741-.193.741-.644,0-.354-.226-.644-.483-.644-.322,0-.483-.354-.483-1.128s.161-1.128.483-1.128c.258,0,.483-.29.483-.644s-.226-.644-.483-.644c-.29,0-.483-.29-.483-.805,0-.58-.161-.806-.644-.806C386.065-393,386-392.774,386-390.165Z" transform="translate(-262.925 434.828)"/>
        <path id="Pfad_28" data-name="Pfad 28" d="M502-390.165c0,3.028.258,3.608,1.514,3.608.516,0,.741-.193.741-.644,0-.354-.226-.644-.483-.644-.322,0-.483-.354-.483-1.128s.161-1.128.483-1.128c.258,0,.483-.29.483-.644s-.226-.644-.483-.644c-.29,0-.483-.29-.483-.805,0-.58-.161-.806-.644-.806C502.065-393,502-392.774,502-390.165Z" transform="translate(-341.551 434.828)"/>
        <path id="Pfad_29" data-name="Pfad 29" d="M542-390.094c0,3.061.258,3.641,1.514,3.641.516,0,.741-.193.741-.644,0-.354-.226-.644-.483-.644-.322,0-.483-.354-.483-1.128s.161-1.128.483-1.128c.258,0,.483-.29.483-.644s-.193-.644-.451-.644-.516-.322-.58-.709a1.009,1.009,0,0,0-.645-.838C542.065-392.929,542-392.639,542-390.094Z" transform="translate(-368.664 434.725)"/>
        <path id="Pfad_30" data-name="Pfad 30" d="M242.4-388.546a2.739,2.739,0,0,0-1.128,3.77,2.672,2.672,0,0,0,3.222,1c1.063-.419,1.772-1.418,1.45-1.933a.712.712,0,0,0-1.256.161c-.258.677-2,.644-2.255-.032-.322-.87.1-1.74.87-1.74.677.032.677.032.1.483a.863.863,0,0,0-.387.966c.161.419.354.387,1.482-.354,1.579-1.063,1.643-1.643.161-2.255C243.334-389.03,243.238-389.03,242.4-388.546Z" transform="translate(-164.592 432.05)"/>
        <path id="Pfad_31" data-name="Pfad 31" d="M291-388.616a2.087,2.087,0,0,1-1.224.1c-.773-.129-.773-.1-.773,2.32,0,2.223.064,2.449.644,2.449.548,0,.644-.226.644-1.256,0-1.579.258-2.288.838-2.288.258,0,.451-.322.451-.805C291.578-389,291.578-389,291-388.616Z" transform="translate(-197.177 432.023)"/>
        <path id="Pfad_32" data-name="Pfad 32" d="M300.418-388.439a2.125,2.125,0,0,0-1.418,2.32,2.527,2.527,0,0,0,3.544,2.384c1.063-.419,1.772-1.418,1.45-1.933a.712.712,0,0,0-1.257.161c-.258.677-2,.644-2.255-.032-.322-.838.1-1.74.838-1.74.644,0,.644.032.129.612-1,1.1-.258,1.385,1.1.451,1.579-1.031,1.611-1.611.161-2.223C301.417-388.987,301.642-388.955,300.418-388.439Z" transform="translate(-203.955 432.007)"/>
        <path id="Pfad_33" data-name="Pfad 33" d="M353.389-388.425c-1.418.58-1.869,2.9-.773,4.221a2.584,2.584,0,0,0,3.641.032A2.635,2.635,0,0,0,353.389-388.425Zm2,2.416c0,.87-.1.967-.967.967-.677,0-1-.161-1.063-.58-.193-1.063.193-1.579,1.128-1.45C355.257-386.976,355.386-386.815,355.386-386.009Z" transform="translate(-239.882 431.864)"/>
        <path id="Pfad_34" data-name="Pfad 34" d="M371.025-388.247c-.709.354-.805.644-.9,2.578-.1,1.965-.032,2.158.548,2.158.548,0,.644-.258.741-1.707s.193-1.675.838-1.772c.677-.1.709,0,.709,1.676,0,1.579.064,1.8.644,1.8s.644-.225.644-2.062a4.131,4.131,0,0,0-.419-2.384A2.743,2.743,0,0,0,371.025-388.247Z" transform="translate(-252.138 431.782)"/>
        <path id="Pfad_35" data-name="Pfad 35" d="M396.74-388.619A3.054,3.054,0,0,0,395-386.17a2.61,2.61,0,0,0,2.288,2.384c.709,0,.934-.161.934-.644a.569.569,0,0,0-.612-.644,1.588,1.588,0,0,1-1.031-.515c-.548-.677,0-1.579,1.031-1.579.709,0,.773.161.87,1.675.1,1.579.161,1.707.9,1.707.709,0,.773-.129.773-1.45,0-1.9-.515-2.964-1.707-3.383a6.109,6.109,0,0,0-1-.29A6.333,6.333,0,0,0,396.74-388.619Z" transform="translate(-269.025 432.058)"/>
        <path id="Pfad_36" data-name="Pfad 36" d="M422.026-388.247c-.709.354-.805.644-.9,2.578-.1,2-.032,2.158.58,2.158.58,0,.644-.193.644-1.8,0-1.676.032-1.772.741-1.676.612.1.709.322.805,1.772s.193,1.707.741,1.707.612-.225.612-2.062a4.13,4.13,0,0,0-.419-2.384A2.743,2.743,0,0,0,422.026-388.247Z" transform="translate(-286.707 431.782)"/>
        <path id="Pfad_37" data-name="Pfad 37" d="M475-388.358c-.387.258-.709.322-.709.161,0-.193-.29-.354-.645-.354-.58,0-.644.226-.644,2.416,0,2.352.032,2.416.805,2.416.741,0,.805-.1.805-1.643,0-1.353.1-1.675.645-1.8a.865.865,0,0,0,.644-.934C475.9-389,475.932-389,475-388.358Z" transform="translate(-321.895 431.99)"/>
        <path id="Pfad_38" data-name="Pfad 38" d="M485.389-388.38c-1.417.58-1.869,2.9-.773,4.221a2.506,2.506,0,0,0,3.77-.161,2.2,2.2,0,0,0,.064-3.222A2.726,2.726,0,0,0,485.389-388.38Zm2.126,1.9a1.1,1.1,0,0,1-1.256,1.579c-.806-.1-1.16-.87-.838-1.74C485.679-387.284,487.129-387.188,487.515-386.479Z" transform="translate(-329.354 431.819)"/>
        <path id="Pfad_39" data-name="Pfad 39" d="M512.319-388.549a2.608,2.608,0,0,0,.483,4.865c1.547.322,3.673-1.128,3.061-2.126-.258-.451-1-.322-1.224.225-.129.322-.516.451-1.224.387-.934-.1-1.063-.193-1.063-1.063,0-.805.161-1,.805-1.063.773-.064.773-.064.193.387a.936.936,0,0,0-.387,1.031c.161.451.354.419,1.418-.387.644-.483,1.224-.9,1.289-.934.322-.258-.483-1.16-1.289-1.418-.548-.193-1-.354-1.031-.354C513.318-388.968,512.867-388.775,512.319-388.549Z" transform="translate(-347.553 432.117)"/>
        <path id="Pfad_40" data-name="Pfad 40" d="M259.644-387.356a2.581,2.581,0,0,0-.644,1.772,2.581,2.581,0,0,0,.644,1.772c.87.87,2.9.9,2.9.032,0-.451-.258-.677-.838-.741-1.8-.193-1.708-2.191.064-2.191.548,0,.773-.193.773-.644,0-.516-.226-.644-1.128-.644A2.581,2.581,0,0,0,259.644-387.356Z" transform="translate(-176.842 431.439)"/>
        <path id="Pfad_41" data-name="Pfad 41" d="M272-386.2a6.744,6.744,0,0,0,.322,2.384c.709,1.321,3.608,1,4-.419a12.137,12.137,0,0,0,.193-2.255c0-1.417-.064-1.514-.805-1.514-.773,0-.806.1-.806,1.8,0,1.675-.032,1.772-.709,1.675-.645-.1-.741-.322-.838-1.8-.1-1.418-.193-1.675-.741-1.675C272.1-388,272-387.775,272-386.2Z" transform="translate(-185.654 431.439)"/>
        <path id="Pfad_42" data-name="Pfad 42" d="M413-387.066c0,.483.1,1.579.193,2.417.161,1.16.354,1.482.806,1.482.548,0,.612-.258.612-2.416,0-2.352-.032-2.416-.806-2.416C413.129-388,413-387.839,413-387.066Z" transform="translate(-281.226 431.439)"/>
        <path id="Pfad_43" data-name="Pfad 43" d="M529.573-387.4a2.488,2.488,0,0,0,1.611,4.188c.741,0,.967-.129.967-.644,0-.483-.226-.644-.806-.644-1.578,0-1.417-1.9.194-2.255a1.217,1.217,0,0,0,.87-.741C532.569-388.3,530.411-388.239,529.573-387.4Z" transform="translate(-359.781 431.485)"/>
        <path id="Pfad_44" data-name="Pfad 44" d="M317.649-376.767a8.931,8.931,0,0,0-.387,1.611c-.322,1.965.612,1.837,1.289-.161.29-.838.516-1.547.516-1.611C319.066-377.154,317.81-376.993,317.649-376.767Z" transform="translate(-216.289 424.008)"/>
        <path id="Pfad_45" data-name="Pfad 45" d="M436.7-376.464c-.58,2.126-.58,2.674.064,2.674.419,0,.709-.354.967-1.257a7.652,7.652,0,0,0,.386-1.611C438.119-377.238,436.895-377.077,436.7-376.464Z" transform="translate(-297.001 423.995)"/>
      </g>
    </g>
  </g>
</svg>
