<?xml version="1.0" encoding="utf-8"?>
<!-- Generator: Adobe Illustrator 26.5.0, SVG Export Plug-In . SVG Version: 6.00 Build 0)  -->
<svg version="1.1" id="Ebene_1" xmlns="http://www.w3.org/2000/svg" xmlns:xlink="http://www.w3.org/1999/xlink" x="0px" y="0px"
	 viewBox="0 0 164 164" style="enable-background:new 0 0 164 164;" xml:space="preserve">
<style type="text/css">
	.st0{fill:#FFFFFF;}
</style>
<g transform="translate(0.000000,164.000000) scale(0.100000,-0.100000)">
	<path class="st0" d="M713,1618c-29-5-53-14-53-19s-6-9-12-9c-16,0-121-48-128-59c-3-4-23-20-45-37c-79-58-144-159-187-289
		c-8-24-13-84-12-150c1-91,5-123,26-182c32-89,108-205,152-233c19-11,36-26,39-33s28-24,56-37c52-25,67-50,31-50
		c-24,0-152-47-160-59c-3-5-28-20-57-34c-28-15-53-30-55-35c-1-5-19-19-39-33C212,321,88,169,42,81L-1,0h30c25,0,34,7,49,37
		c11,21,26,50,33,64c16,29,140,179,149,179c3,0,22,16,43,35s52,42,70,51c17,9,37,22,44,30c13,12,115,54,133,54c6,0,10,4,10,9
		c0,4,28,14,63,21c113,23,447,7,447-21c0-5,4-9,10-9c18,0,120-42,133-54c7-8,27-20,43-29c50-26,204-167,204-187c0-4,9-15,20-25
		c19-17,29-34,72-117c15-31,24-38,49-38h30l-32,63c-65,124-177,261-249,304c-16,9-30,21-30,25s-23,19-52,34c-28,14-58,32-65,40
		c-7,7-45,23-83,35c-39,13-70,26-70,30c0,3,19,14,43,23c87,33,190,138,245,250c80,163,81,341,2,508c-12,26-28,52-36,59
		c-8,6-14,17-14,23c-1,15-48,65-95,100c-22,17-42,33-45,37c-7,11-112,59-127,59c-7,0-13,4-13,9C1010,1624,814,1637,713,1618z
		 M990,1549c19-7,37-15,40-18s31-18,63-33c31-15,57-32,57-37c0-6,14-18,31-28c58-34,129-155,155-261c33-139,10-256-83-415
		c-17-29-101-105-136-124c-17-8-37-22-44-29c-60-60-416-60-476,0c-7,7-27,21-44,29c-35,19-119,95-136,124c-68,116-97,209-97,304
		c0,129,82,312,165,368c19,13,35,28,35,32c0,5,26,22,58,37c31,15,59,30,62,34s33,14,65,23C774,1572,934,1569,990,1549z"/>
	<path class="st0" d="M536,1257c-25-18-6-32,32-22c26,6,26,6,8-14c-11-12-19-35-18-52c1-29,0-30-18-14c-27,24-38-2-12-28
		c38-37,203-32,189,6c-5,13-21,14-51,2c-16-7-17-6-6,15c7,12,9,35,6,51c-5,27-4,27,29,22c23-4,35-2,35,6C730,1258,568,1282,536,1257
		z"/>
	<path class="st0" d="M940,1231c-14-4-25-13-25-21c0-16,16-18,55-5c22,7,23,6,11-9c-9-11-12-29-7-56l6-41l-31,17c-46,24-62,2-18-25
		c27-16,51-21,110-21c81,0,108,13,95,46c-6,16-8,16-24,0c-10-9-20-16-23-16c-2,0-4,22-4,49c0,43,2,48,17,40c46-25,52,3,6,31
		C1074,1240,993,1246,940,1231z"/>
	<path class="st0" d="M786,1055c-4-14-11-25-16-25c-6,0-10-11-10-25c0-21,4-25,28-24c23,2,24,2,5,6c-27,5-29,18-8,39
		c8,9,15,24,15,35C800,1087,793,1085,786,1055z"/>
	<path class="st0" d="M749,917c-38-25-47-49-48-129c-1-50,3-62,27-89c21-23,38-32,72-36c74-8,84,7,88,126c5,125-7,151-67,151
		C798,940,770,931,749,917z M854,894c10-25,7-150-4-180c-9-24-14-26-48-21c-56,9-75,39-69,109c3,32,11,64,19,71
		C789,910,843,922,854,894z"/>
</g>
</svg>
