<?xml version="1.0" standalone="no"?>
<!DOCTYPE svg PUBLIC "-//W3C//DTD SVG 20010904//EN"
 "http://www.w3.org/TR/2001/REC-SVG-20010904/DTD/svg10.dtd">
<svg version="1.0" xmlns="http://www.w3.org/2000/svg"
 width="164.000000pt" height="164.000000pt" viewBox="0 0 164.000000 164.000000"
 preserveAspectRatio="xMidYMid meet">

<g transform="translate(0.000000,164.000000) scale(0.100000,-0.100000)"
fill="#000000" stroke="none">
<path d="M713 1618 c-29 -5 -53 -14 -53 -19 0 -5 -6 -9 -12 -9 -16 0 -121 -48
-128 -59 -3 -4 -23 -20 -45 -37 -79 -58 -144 -159 -187 -289 -8 -24 -13 -84
-12 -150 1 -91 5 -123 26 -182 32 -89 108 -205 152 -233 19 -11 36 -26 39 -33
3 -7 28 -24 56 -37 52 -25 67 -50 31 -50 -24 0 -152 -47 -160 -59 -3 -5 -28
-20 -57 -34 -28 -15 -53 -30 -55 -35 -1 -5 -19 -19 -39 -33 -57 -38 -181 -190
-227 -278 l-43 -81 30 0 c25 0 34 7 49 37 11 21 26 50 33 64 16 29 140 179
149 179 3 0 22 16 43 35 21 19 52 42 70 51 17 9 37 22 44 30 13 12 115 54 133
54 6 0 10 4 10 9 0 4 28 14 63 21 113 23 447 7 447 -21 0 -5 4 -9 10 -9 18 0
120 -42 133 -54 7 -8 27 -20 43 -29 50 -26 204 -167 204 -187 0 -4 9 -15 20
-25 19 -17 29 -34 72 -117 15 -31 24 -38 49 -38 l30 0 -32 63 c-65 124 -177
261 -249 304 -16 9 -30 21 -30 25 0 4 -23 19 -52 34 -28 14 -58 32 -65 40 -7
7 -45 23 -83 35 -39 13 -70 26 -70 30 0 3 19 14 43 23 87 33 190 138 245 250
80 163 81 341 2 508 -12 26 -28 52 -36 59 -8 6 -14 17 -14 23 -1 15 -48 65
-95 100 -22 17 -42 33 -45 37 -7 11 -112 59 -127 59 -7 0 -13 4 -13 9 0 25
-196 38 -297 19z m277 -69 c19 -7 37 -15 40 -18 3 -3 31 -18 63 -33 31 -15 57
-32 57 -37 0 -6 14 -18 31 -28 58 -34 129 -155 155 -261 33 -139 10 -256 -83
-415 -17 -29 -101 -105 -136 -124 -17 -8 -37 -22 -44 -29 -60 -60 -416 -60
-476 0 -7 7 -27 21 -44 29 -35 19 -119 95 -136 124 -68 116 -97 209 -97 304 0
129 82 312 165 368 19 13 35 28 35 32 0 5 26 22 58 37 31 15 59 30 62 34 3 4
33 14 65 23 69 17 229 14 285 -6z"/>
<path d="M536 1257 c-25 -18 -6 -32 32 -22 26 6 26 6 8 -14 -11 -12 -19 -35
-18 -52 1 -29 0 -30 -18 -14 -27 24 -38 -2 -12 -28 38 -37 203 -32 189 6 -5
13 -21 14 -51 2 -16 -7 -17 -6 -6 15 7 12 9 35 6 51 -5 27 -4 27 29 22 23 -4
35 -2 35 6 0 29 -162 53 -194 28z"/>
<path d="M940 1231 c-14 -4 -25 -13 -25 -21 0 -16 16 -18 55 -5 22 7 23 6 11
-9 -9 -11 -12 -29 -7 -56 l6 -41 -31 17 c-46 24 -62 2 -18 -25 27 -16 51 -21
110 -21 81 0 108 13 95 46 -6 16 -8 16 -24 0 -10 -9 -20 -16 -23 -16 -2 0 -4
22 -4 49 0 43 2 48 17 40 46 -25 52 3 6 31 -34 20 -115 26 -168 11z"/>
<path d="M786 1055 c-4 -14 -11 -25 -16 -25 -6 0 -10 -11 -10 -25 0 -21 4 -25
28 -24 23 2 24 2 5 6 -27 5 -29 18 -8 39 8 9 15 24 15 35 0 26 -7 24 -14 -6z"/>
<path d="M748 833 c34 -2 88 -2 120 0 31 2 3 3 -63 3 -66 0 -92 -1 -57 -3z"/>
</g>
</svg>
