<?xml version="1.0" encoding="utf-8"?>
<!-- Generator: Adobe Illustrator 26.5.0, SVG Export Plug-In . SVG Version: 6.00 Build 0)  -->
<svg version="1.1" id="Ebene_1" xmlns="http://www.w3.org/2000/svg" xmlns:xlink="http://www.w3.org/1999/xlink" x="0px" y="0px"
	 viewBox="0 0 410 410" style="enable-background:new 0 0 410 410;" xml:space="preserve">
<g transform="translate(0.000000,5120.000000) scale(0.100000,-0.100000)">
	<path d="M1991,51148.9c-359.6-10.9-705-117-1009.2-310.3c-116.4-73.9-231.3-165-326.2-258.4c-51-50.2-84.6-85.9-124.3-132.4
		c-182.5-213.1-317.7-459.9-397.8-725.9c-48.3-160.6-74.5-317.3-82.6-494.1c-1.3-28.4-1.3-127.9,0-156.3
		c6.6-144.6,24.5-270.3,57.3-402c43.2-173.4,108.1-336.6,197.1-495.3c69-123.1,156.3-245.2,252.6-353.1
		c46.8-52.5,103.5-109.5,155.9-156.6c221.1-199,481.9-346.1,763.9-430.9c372.4-112,772.2-112,1144.6,0
		c282,84.8,542.8,231.9,763.9,430.9c52.4,47.1,109.1,104.1,155.9,156.6c217.4,243.8,371.5,534.5,449.6,848.5
		c32.7,131.8,50.5,256.2,57.3,402c1.3,27.3,1.3,129,0,156.3c-3.9,84.2-10.3,150.3-21.7,225c-58.1,379.3-226.7,735.6-485.2,1025.4
		c-46.8,52.5-103.5,109.5-155.9,156.6c-335.7,302.2-757.8,481-1205,510.5C2121.3,51149.3,2049.8,51150.7,1991,51148.9z
		 M2121.5,50329.5c24.1-1.6,45.1-3.2,61-4.8c192.9-19.2,354.4-81.2,482.9-185.2c25-20.2,46.3-39.7,71.9-65.6
		c115.6-117.4,180.2-250.4,193.8-398.8c7.4-81.4-0.9-156.6-25.4-230.1c-22.7-68.3-56.7-130-104.2-189.1
		c-67.9-84.5-169.1-182-320.9-309c-111.4-93.2-165.1-153-181.6-202c-14.1-41.9-20.7-103.1-21.1-195.3c-0.2-36.6-0.2-38.9-1.8-43
		c-3.9-10.7-11.5-18.4-22.5-22.7l-4.7-1.9l-210.2-0.2c-139.9-0.1-211.6,0.1-214.4,0.6c-14.5,2.7-27.3,15.5-29.7,29.7
		c-1.4,8-2.7,127.7-1.7,153.1c4.7,121.6,25.1,214.3,65.3,298.1c37.4,77.8,108.2,162.3,215.3,257c22,19.5,41.2,35.7,77,64.9
		c111.6,91.3,180.3,151.9,208.3,184c21.6,24.8,39.5,56.8,49.1,87.9c16.5,53.5,13.9,114.4-7.1,167.2c-24.5,61.6-79.2,118.6-144.2,150
		c-52.7,25.5-117.2,38.7-189.8,38.7c-105.7,0-195-30.1-265-89.2c-69.9-59.1-118.8-150.9-146.7-275.5c-1.3-5.3-3-10.8-4.5-13.5
		c-6.2-11.5-19-19.4-31.6-19.5c-3.7,0-71.1,8.3-332.8,40.9c-49.9,6.3-92.4,11.9-94.6,12.6c-12,3.6-22,15.2-24.5,28.2
		c-1,5.3,0.2,25,3.2,51.1c19.1,166,89.5,309.9,211.6,432.8c56.2,56.5,113.1,99.8,179.8,137.1c117.4,65.5,259.4,103.4,416.1,111.3
		c9.1,0.5,18.7,0.9,21.5,1.1C2010.5,50331.1,2109.2,50330.3,2121.5,50329.5z M2243.1,48400.4c5.8-1.1,14.5-5.5,18.5-9.5
		c4.1-3.8,8-9.8,10-15.2c1.4-3.8,1.5-9.1,1.7-188.7c0.2-205.2,0.5-191.1-5-200.5c-3.7-6.3-9.8-11.7-16.7-15.1l-5.9-2.8l-187.2-0.2
		c-203.6-0.2-190.3-0.5-198.8,3.9c-4.4,2.3-12.3,10.1-14.8,14.5c-4.8,8.9-4.5-5.9-4.3,199.4l0.2,187.1l2.9,6.1
		c5,10.4,14.1,17.9,25.1,20.5C1874.2,48401.4,2236.4,48401.7,2243.1,48400.4z"/>
</g>
</svg>
